# xmcd
#
# Track frame offsets: 
#        150
#        18355
#        42656
#        58558
#        80352
#        96820
#        130330
#        156971
#        179624
#        207694
#        225191
#        251188
#        273871
#        297559
#        320691
#        337887
#
# Disc length: 4642 seconds
#
# Revision: 0
# Processed by: cddbd v1.5.2PL0 Copyright (c) Steve Scherf et al.
# Submitted via: ExactAudioCopy v1.0b6
#
DISCID=ec122010
DTITLE=Bugs Henderson - The Kings Of Clubs - The California Sessions (
DTITLE=CD1)
DYEAR=2014
DGENRE=Blues-Rock
TTITLE0=She Feels Good
TTITLE1=Shocked, Stunned And Bewildered
TTITLE2=You Ain't Nothin To Texas
TTITLE3=The Hawk
TTITLE4=Jitterbugs
TTITLE5=Roll Me Over
TTITLE6=Hit The Bricks
TTITLE7=Please Have Mercy
TTITLE8=The Road
TTITLE9=Baby Ruth
TTITLE10=Drugstore Blues
TTITLE11=No One Owns The Blues
TTITLE12=(When You) Love Somebody
TTITLE13=Cowboy
TTITLE14=Look What Love Can Do
TTITLE15=Autumn Lullaby
EXTD=
EXTT0=
EXTT1=
EXTT2=
EXTT3=
EXTT4=
EXTT5=
EXTT6=
EXTT7=
EXTT8=
EXTT9=
EXTT10=
EXTT11=
EXTT12=
EXTT13=
EXTT14=
EXTT15=
PLAYORDER=
